<?xml version="1.0" encoding="utf-8"?>
<!-- Generator: Adobe Illustrator 21.1.0, SVG Export Plug-In . SVG Version: 6.00 Build 0)  -->
<svg version="1.1" id="Layer_1" xmlns="http://www.w3.org/2000/svg" xmlns:xlink="http://www.w3.org/1999/xlink" x="0px" y="0px"
	 viewBox="0 0 30 30" style="enable-background:new 0 0 30 30;" xml:space="preserve">
<style type="text/css">
	.st0{clip-path:url(#SVGID_2_);fill:#999999;}
</style>
<g>
	<defs>
		<rect id="SVGID_1_" width="30" height="30"/>
	</defs>
	<clipPath id="SVGID_2_">
		<use xlink:href="#SVGID_1_"  style="overflow:visible;"/>
	</clipPath>
	<path class="st0" d="M14.8,7c3.7,0,6.5-2.8,6.5-6.5C21.3,0.2,21,0,20.8,0c-3.7,0-6.5,2.8-6.5,6.5C14.3,6.8,14.5,7,14.8,7z"/>
	<path class="st0" d="M26.7,21.1c-0.1-0.1-0.2-0.2-0.3-0.2c-2.3-0.4-4.1-2.5-4.1-4.9c0-2,1.2-3.8,3.1-4.6c0.1-0.1,0.3-0.2,0.3-0.3
		s0-0.3-0.1-0.4c-1.5-2-3.5-2.7-4.8-2.7c-1.2,0-2.2,0.3-3.1,0.6C16.8,8.8,16,9,15.3,9c-0.8,0-1.7-0.2-2.6-0.5C11.6,8.3,10.4,8,9.3,8
		c-2.5,0-6,3.2-6,9s3.9,13,7,13c1.7,0,2.7-0.4,3.5-0.7c0.5-0.2,1-0.3,1.5-0.3s0.9,0.2,1.5,0.3c0.8,0.3,1.8,0.7,3.5,0.7
		c2.5,0,5.1-4.4,6.4-8.5C26.8,21.4,26.7,21.3,26.7,21.1z"/>
</g>
</svg>
