<?xml version="1.0" encoding="utf-8"?>
<!-- Generator: Adobe Illustrator 21.1.0, SVG Export Plug-In . SVG Version: 6.00 Build 0)  -->
<svg version="1.1" id="Layer_1" xmlns="http://www.w3.org/2000/svg" xmlns:xlink="http://www.w3.org/1999/xlink" x="0px" y="0px"
	 viewBox="0 0 16 16" style="enable-background:new 0 0 16 16;" xml:space="preserve">
<style type="text/css">
	.st0{clip-path:url(#SVGID_2_);fill:none;stroke:#000000;stroke-linecap:round;stroke-linejoin:round;stroke-miterlimit:1;}
	.st1{clip-path:url(#SVGID_2_);fill:none;stroke:#000000;stroke-linejoin:round;stroke-miterlimit:1;}
</style>
<g>
	<defs>
		<rect id="SVGID_1_" width="16" height="16"/>
	</defs>
	<clipPath id="SVGID_2_">
		<use xlink:href="#SVGID_1_"  style="overflow:visible;"/>
	</clipPath>
	<rect x="0.5" y="7.5" class="st0" width="6" height="8"/>
	<polyline class="st0" points="3.5,7.5 3.5,0.5 11.5,0.5 11.5,4.5 	"/>
	<polygon class="st0" points="15.5,15.5 6.5,15.5 6.5,9.5 9.5,7.5 9.5,4.5 15.5,4.5 	"/>
	<line class="st1" x1="2" y1="9.5" x2="3" y2="9.5"/>
	<line class="st1" x1="4" y1="9.5" x2="5" y2="9.5"/>
	<line class="st1" x1="2" y1="11.5" x2="3" y2="11.5"/>
	<line class="st1" x1="4" y1="11.5" x2="5" y2="11.5"/>
	<line class="st1" x1="5" y1="2.5" x2="6" y2="2.5"/>
	<line class="st1" x1="7" y1="2.5" x2="8" y2="2.5"/>
	<line class="st1" x1="5" y1="4.5" x2="6" y2="4.5"/>
	<line class="st1" x1="7" y1="4.5" x2="8" y2="4.5"/>
	<line class="st1" x1="9" y1="2.5" x2="10" y2="2.5"/>
	<rect x="11.5" y="10.5" class="st1" width="2" height="2"/>
	<rect x="11.5" y="6.5" class="st1" width="2" height="2"/>
</g>
</svg>
