<?xml version="1.0" encoding="utf-8"?>
<!-- Generator: Adobe Illustrator 21.1.0, SVG Export Plug-In . SVG Version: 6.00 Build 0)  -->
<svg version="1.1" id="Layer_1" xmlns="http://www.w3.org/2000/svg" xmlns:xlink="http://www.w3.org/1999/xlink" x="0px" y="0px"
	 viewBox="0 0 16 16" style="enable-background:new 0 0 16 16;" xml:space="preserve">
<style type="text/css">
	.st0{clip-path:url(#SVGID_2_);fill:#1976D2;}
	.st1{clip-path:url(#SVGID_2_);fill:#2196F3;}
	.st2{clip-path:url(#SVGID_2_);fill:#64B5F6;}
	.st3{clip-path:url(#SVGID_2_);fill:#FAFAFA;}
</style>
<g>
	<defs>
		<rect id="SVGID_1_" width="16" height="16"/>
	</defs>
	<clipPath id="SVGID_2_">
		<use xlink:href="#SVGID_1_"  style="overflow:visible;"/>
	</clipPath>
	<path class="st0" d="M11.5,0h-8C3.2,0,3,0.2,3,0.5v8C3,8.8,3.2,9,3.5,9h8C11.8,9,12,8.8,12,8.5v-8C12,0.2,11.8,0,11.5,0z"/>
	<path class="st1" d="M15.5,4h-6C9.2,4,9,4.2,9,4.5v2.7L6.2,9.1C6.1,9.2,6,9.3,6,9.5v6C6,15.8,6.2,16,6.5,16h9
		c0.3,0,0.5-0.2,0.5-0.5v-11C16,4.2,15.8,4,15.5,4z"/>
	<path class="st2" d="M6.5,7h-6C0.2,7,0,7.2,0,7.5v8C0,15.8,0.2,16,0.5,16h6C6.8,16,7,15.8,7,15.5v-8C7,7.2,6.8,7,6.5,7z"/>
	<rect x="2" y="9" class="st3" width="1" height="1"/>
	<rect x="4" y="9" class="st3" width="1" height="1"/>
	<rect x="2" y="11" class="st3" width="1" height="1"/>
	<rect x="4" y="11" class="st3" width="1" height="1"/>
	<rect x="5" y="2" class="st3" width="1" height="1"/>
	<rect x="7" y="2" class="st3" width="1" height="1"/>
	<rect x="5" y="4" class="st3" width="1" height="1"/>
	<rect x="7" y="4" class="st3" width="1" height="1"/>
	<rect x="9" y="2" class="st3" width="1" height="1"/>
	<rect x="12" y="11" class="st3" width="2" height="2"/>
	<rect x="12" y="7" class="st3" width="2" height="2"/>
</g>
</svg>
