<?xml version="1.0" encoding="utf-8"?>
<!-- Generator: Adobe Illustrator 21.1.0, SVG Export Plug-In . SVG Version: 6.00 Build 0)  -->
<svg version="1.1" id="Layer_1" xmlns="http://www.w3.org/2000/svg" xmlns:xlink="http://www.w3.org/1999/xlink" x="0px" y="0px"
	 viewBox="0 0 16 16" style="enable-background:new 0 0 16 16;" xml:space="preserve">
<style type="text/css">
	.st0{clip-path:url(#SVGID_2_);fill:#EC407A;}
	.st1{clip-path:url(#SVGID_2_);fill:#C2185B;}
</style>
<g>
	<defs>
		<rect id="SVGID_1_" width="16" height="16"/>
	</defs>
	<clipPath id="SVGID_2_">
		<use xlink:href="#SVGID_1_"  style="overflow:visible;"/>
	</clipPath>
	<path class="st0" d="M13.3,2.6c2.9,2.9,2.9,7.7,0,10.6s-7.7,2.9-10.6,0s-2.9-7.7,0-10.6S10.4-0.3,13.3,2.6"/>
	<path class="st1" d="M11.6,14c-0.3-1.8-0.7-3.5-1.3-5.2c1.5-0.3,3.1-0.2,4.6,0.2C14.6,11.2,13.3,12.9,11.6,14z M3.5,13.4
		C4.9,11.3,7,9.8,9.3,9.1c0.6,1.7,1.1,3.5,1.4,5.4C9.8,14.8,8.9,15,8,15C6.3,15,4.8,14.4,3.5,13.4z M1,8c0-0.1,0-0.3,0-0.4
		c0.6,0.1,1.2,0.1,1.8,0.1c1.9,0,3.7-0.4,5.5-1c0.2,0.5,0.5,1,0.7,1.5c-2.5,0.7-4.6,2.3-6.1,4.5C1.7,11.4,1,9.8,1,8z M5.1,1.6
		c1,1.3,1.9,2.7,2.7,4.1C5.7,6.5,3.4,6.8,1.1,6.6C1.6,4.4,3.1,2.5,5.1,1.6z M12.6,2.7c-1.1,1.1-2.4,2-3.8,2.6C8,3.9,7.1,2.6,6.1,1.3
		C6.7,1.1,7.4,1,8,1C9.7,1,11.3,1.6,12.6,2.7z M15,8.1c-1.7-0.4-3.4-0.5-5.1-0.2C9.7,7.3,9.4,6.8,9.2,6.2c1.5-0.7,2.9-1.6,4.1-2.8
		C14.3,4.6,15,6.2,15,8.1C15,8,15,8,15,8.1z M8,0C3.6,0,0,3.6,0,8s3.6,8,8,8s8-3.6,8-8S12.4,0,8,0z"/>
</g>
</svg>
